<?xml version="1.0" encoding="utf-8"?>
<!-- Generator: Adobe Illustrator 16.0.0, SVG Export Plug-In . SVG Version: 6.00 Build 0)  -->
<!DOCTYPE svg PUBLIC "-//W3C//DTD SVG 1.1//EN" "http://www.w3.org/Graphics/SVG/1.1/DTD/svg11.dtd">
<svg version="1.1" id="Calque_1" xmlns="http://www.w3.org/2000/svg" xmlns:xlink="http://www.w3.org/1999/xlink" x="0px" y="0px"
	 width="242px" height="52px" viewBox="0 0 242 52" enable-background="new 0 0 242 52" xml:space="preserve">
<g>
	<path fill="none" d="M15.324,27.949c0.469-0.012,0.815-0.066,1.036-0.164C16.139,27.883,15.793,27.938,15.324,27.949z"/>
	<path fill="none" d="M13.457,27.648c0.586,0.203,1.137,0.303,1.658,0.303C14.595,27.951,14.042,27.852,13.457,27.648z"/>
	<path fill="none" d="M118.816,40.168c-0.307,0-0.541,0.121-0.706,0.367c-0.165,0.242-0.247,0.525-0.247,0.85
		c0,0.332,0.084,0.627,0.249,0.885c0.168,0.256,0.405,0.385,0.715,0.385c0.306,0,0.541-0.122,0.704-0.366
		c0.164-0.246,0.245-0.529,0.245-0.851c0-0.33-0.082-0.625-0.25-0.883C119.36,40.297,119.123,40.168,118.816,40.168z"/>
	<path fill="none" d="M112.673,40.174c-0.51,0-0.81,0.311-0.902,0.93l1.65-0.035C113.421,40.473,113.171,40.174,112.673,40.174z"/>
	<path fill="none" d="M109.094,40.229c-0.382,0-0.656,0.115-0.822,0.347c0,0.758,0.017,1.368,0.05,1.838
		c0.173,0.146,0.396,0.219,0.672,0.219c0.348,0,0.609-0.123,0.784-0.366c0.173-0.244,0.26-0.541,0.26-0.894
		c0-0.32-0.083-0.59-0.251-0.812C109.62,40.338,109.388,40.229,109.094,40.229z"/>
	<path fill="none" d="M17.521,23.104c-0.469-0.161-0.973-0.244-1.514-0.244c-0.794,0-1.213,0.201-1.267,0.596
		c-0.004,0.028-0.012,0.056-0.012,0.086l0,0c0-0.031,0.007-0.058,0.012-0.086c0.143-0.273,0.537-0.411,1.192-0.411
		c0.558,0,1.075,0.086,1.555,0.26L17.521,23.104c0.022,0.008,0.046,0.014,0.068,0.022l0.199-1.202l0,0l-0.199,1.202
		C17.567,23.118,17.543,23.112,17.521,23.104z"/>
	<path fill="none" d="M27.241,17.654v-1.036v-2.313V9.609c0-3.64-3.727-7.637-8.692-7.637c-4.963,0-8.691,3.998-8.691,7.637v4.697
		l0,0h17.383v2.313c-0.519,0.272-0.875,0.815-0.875,1.442c0,0.899,0.729,1.627,1.628,1.627s1.628-0.729,1.628-1.627
		c0-0.595-0.321-1.114-0.797-1.397v0.991L27.241,17.654L27.241,17.654z M18.699,14.294c-2.774,0-5.24,0-8.014,0h15.759
		C23.656,14.297,21.487,14.294,18.699,14.294z"/>
	<path fill="none" d="M128.963,40.18c-0.357,0-0.627,0.121-0.807,0.357c-0.178,0.24-0.268,0.541-0.268,0.9
		c0,0.323,0.086,0.594,0.254,0.815c0.17,0.222,0.403,0.33,0.705,0.33c0.375,0,0.645-0.094,0.812-0.283
		c0-0.659-0.019-1.295-0.054-1.905C129.434,40.252,129.221,40.18,128.963,40.18z"/>
	<path fill="none" d="M7.392,28.91c0.047-1.043,0.07-2.273,0.07-3.688C7.462,26.637,7.438,27.867,7.392,28.91z"/>
	<path fill="none" d="M9.104,21.843c0.379-0.011,0.707-0.017,0.985-0.017l0,0C9.811,21.826,9.482,21.832,9.104,21.843
		c-0.379,0.01-0.636,0.016-0.769,0.016l0,0C8.467,21.859,8.724,21.854,9.104,21.843z"/>
	<path fill="none" d="M9.602,22.845c-0.256,0-0.527,0.027-0.812,0.082c0.003,0.05,0.005,0.104,0.008,0.157
		c0.271-0.052,0.528-0.078,0.772-0.078c0.98,0,1.472,0.37,1.472,1.11c0,0.309-0.096,0.557-0.284,0.746
		c0.254-0.206,0.382-0.492,0.382-0.857C11.14,23.231,10.626,22.845,9.602,22.845z"/>
	<path fill="none" d="M132.348,40.174c-0.51,0-0.809,0.311-0.899,0.93l1.649-0.035C133.098,40.473,132.848,40.174,132.348,40.174z"
		/>
	<path fill="none" d="M66.253,40.18c-0.359,0-0.628,0.121-0.806,0.357c-0.178,0.24-0.268,0.541-0.268,0.9
		c0,0.323,0.085,0.594,0.253,0.815s0.402,0.33,0.702,0.33c0.375,0,0.647-0.094,0.815-0.283c0-0.659-0.018-1.295-0.054-1.905
		C66.724,40.252,66.511,40.18,66.253,40.18z"/>
	<path fill="none" d="M61.289,40.174c-0.51,0-0.81,0.311-0.902,0.93l1.649-0.035C62.037,40.473,61.788,40.174,61.289,40.174z"/>
	<path fill="none" d="M93.571,24.976c-1.533,0-2.444,0.976-2.73,2.928l5.142-0.1C95.982,25.919,95.178,24.976,93.571,24.976z"/>
	<path fill="none" d="M69.701,40.168c-0.306,0-0.541,0.121-0.705,0.367c-0.164,0.242-0.246,0.525-0.246,0.85
		c0,0.332,0.083,0.627,0.25,0.885c0.167,0.256,0.405,0.385,0.715,0.385c0.305,0,0.54-0.122,0.703-0.366
		c0.163-0.246,0.245-0.529,0.245-0.851c0-0.33-0.083-0.625-0.25-0.883C70.247,40.297,70.009,40.168,69.701,40.168z"/>
	<path fill="none" d="M16.381,26.527c-0.205-0.166-0.623-0.382-1.251-0.649c-0.57-0.246-0.995-0.514-1.272-0.802
		c-0.35-0.366-0.525-0.814-0.525-1.349c0-0.099,0.008-0.194,0.021-0.286c-0.033,0.143-0.049,0.294-0.049,0.456
		c0,0.524,0.172,0.967,0.516,1.325c0.274,0.283,0.691,0.546,1.251,0.788c0.617,0.263,1.027,0.475,1.229,0.639
		c0.234,0.185,0.352,0.412,0.352,0.682c0,0.119-0.03,0.221-0.082,0.309c0.109-0.109,0.168-0.244,0.168-0.418
		C16.739,26.945,16.62,26.715,16.381,26.527z"/>
	<path fill="none" d="M83.764,40.168c-0.306,0-0.541,0.121-0.706,0.367c-0.164,0.242-0.247,0.525-0.247,0.85
		c0,0.332,0.083,0.627,0.25,0.885c0.167,0.256,0.405,0.385,0.715,0.385c0.306,0,0.54-0.122,0.704-0.366
		c0.163-0.246,0.245-0.529,0.245-0.851c0-0.33-0.083-0.625-0.249-0.883C84.309,40.297,84.072,40.168,83.764,40.168z"/>
	<path fill="none" d="M101.317,40.174c-0.509,0-0.81,0.311-0.901,0.93l1.649-0.035C102.065,40.473,101.815,40.174,101.317,40.174z"
		/>
	<path fill="none" d="M18.158,26.986L18.158,26.986c0,0.65-0.216,1.146-0.645,1.498c-0.503,0.412-1.301,0.621-2.398,0.621
		c-0.689,0-1.331-0.082-1.922-0.25l0.243-1.104c-0.003,0-0.006-0.002-0.008-0.002l-0.262,1.188c0.582,0.164,1.212,0.244,1.891,0.244
		c1.153,0,1.971-0.231,2.457-0.697C17.941,28.133,18.158,27.637,18.158,26.986z"/>
	<path fill="none" d="M61.848,24.976c-1.533,0-2.444,0.976-2.73,2.928l5.141-0.1C64.259,25.919,63.456,24.976,61.848,24.976z"/>
	<path fill="none" d="M47.515,40.168c-0.305,0-0.541,0.121-0.705,0.367c-0.164,0.242-0.247,0.525-0.247,0.85
		c0,0.332,0.083,0.627,0.25,0.885c0.167,0.256,0.406,0.385,0.715,0.385c0.306,0,0.541-0.122,0.704-0.366
		c0.163-0.246,0.245-0.529,0.245-0.851c0-0.33-0.083-0.625-0.25-0.883C48.061,40.297,47.823,40.168,47.515,40.168z"/>
	<path fill="none" d="M94.552,41.533c-0.348,0.107-0.521,0.311-0.521,0.607c0,0.289,0.204,0.434,0.612,0.434
		c0.349,0,0.628-0.086,0.836-0.26c-0.011-0.324-0.016-0.613-0.016-0.871C95.064,41.443,94.762,41.473,94.552,41.533z"/>
	<path fill="none" d="M11.576,25.617c-0.642,0.412-1.428,0.618-2.359,0.618c-0.17,0-0.291-0.004-0.363-0.011
		c0,0.678,0.02,1.573,0.06,2.687H7.467l0,0c-0.001,0.026-0.002,0.055-0.003,0.082H8.96c-0.039-1.095-0.058-1.976-0.058-2.642
		c0.07,0.008,0.189,0.012,0.355,0.012c0.916,0,1.688-0.203,2.319-0.607c0.574-0.369,0.883-0.923,0.935-1.659
		C12.426,24.762,12.116,25.271,11.576,25.617z"/>
	<path fill="none" d="M165.785,40.168c-0.307,0-0.539,0.121-0.705,0.367c-0.166,0.242-0.246,0.525-0.246,0.85
		c0,0.332,0.082,0.627,0.248,0.885c0.168,0.256,0.406,0.385,0.717,0.385c0.307,0,0.539-0.122,0.703-0.366
		c0.164-0.246,0.246-0.529,0.246-0.851c0-0.33-0.084-0.625-0.25-0.883C166.33,40.297,166.094,40.168,165.785,40.168z"/>
	<path fill="none" d="M154.855,40.174c-0.51,0-0.81,0.311-0.9,0.93l1.65-0.035C155.605,40.473,155.355,40.174,154.855,40.174z"/>
	<path fill="none" d="M174.164,23.918c-0.467,0-0.955,0.05-1.463,0.148c0.09,1.346,0.135,2.694,0.135,4.047
		c0.146,0.008,0.32,0.014,0.518,0.014c2.41,0,3.615-0.73,3.615-2.191C176.969,24.591,176.033,23.918,174.164,23.918z"/>
	<path fill="none" d="M46.878,26.711c2.993,0,4.49-0.948,4.49-2.842c0-1.755-1.165-2.632-3.494-2.632
		c-0.583,0-1.198,0.062-1.845,0.185c0.09,1.55,0.135,3.305,0.135,5.266C46.37,26.703,46.608,26.711,46.878,26.711z"/>
	<path fill="none" d="M160.561,24.054c-1.018,0-1.856,0.418-2.521,1.254c-0.664,0.837-0.998,1.866-0.998,3.088
		c0,1.278,0.354,2.346,1.062,3.199c0.703,0.852,1.59,1.278,2.653,1.278c1.011,0,1.849-0.422,2.517-1.265
		c0.67-0.84,1.004-1.87,1.004-3.094c0-1.276-0.354-2.342-1.06-3.189C162.514,24.478,161.627,24.054,160.561,24.054z"/>
	<path fill="none" d="M135.74,40.229c-0.383,0-0.656,0.115-0.822,0.347c0.035,0.713,0.053,1.325,0.053,1.838
		c0.17,0.146,0.396,0.219,0.672,0.219c0.351,0,0.609-0.125,0.785-0.37c0.172-0.246,0.258-0.544,0.258-0.89
		c0-0.313-0.082-0.582-0.248-0.808C136.271,40.34,136.041,40.229,135.74,40.229z"/>
	<path fill="none" d="M22.7,40.818c0.428-0.367,0.899-0.639,1.425-0.799c0.928-0.281,1.638,0.043,2.111,0.946
		c0.344,0.656,0.333,1.021,0.499,1.759c0.007,0.03,0.017,0.062,0.028,0.094c-0.011-0.031-0.021-0.062-0.028-0.094
		c-0.166-0.736-0.155-1.103-0.499-1.761c-0.474-0.901-1.183-1.228-2.111-0.944C23.599,40.18,23.128,40.451,22.7,40.818
		c-0.077,0.065-0.128,0.121-0.151,0.176C22.572,40.939,22.623,40.885,22.7,40.818z"/>
	<path fill="none" d="M26.766,42.83c0.008,0.023,0.018,0.049,0.027,0.072C26.784,42.879,26.774,42.854,26.766,42.83z"/>
	<path fill="#E72730" d="M46.312,35.014c-0.09-2.524-0.135-4.559-0.135-6.104c0.164,0.018,0.439,0.027,0.824,0.027
		c2.116,0,3.901-0.467,5.357-1.404c1.455-0.934,2.183-2.381,2.183-4.34c0-1.435-0.537-2.505-1.612-3.21
		c-1.074-0.706-2.389-1.058-3.948-1.058c-0.632,0-1.377,0.012-2.239,0.037c-0.862,0.025-1.444,0.037-1.747,0.037h-2.14
		c0.106,2.141,0.16,4.687,0.16,7.64c0,3.215-0.054,6.008-0.16,8.377h3.457V35.014z M47.875,21.237c2.329,0,3.494,0.877,3.494,2.632
		c0,1.895-1.498,2.842-4.49,2.842c-0.27,0-0.508-0.009-0.714-0.025c0-1.959-0.044-3.714-0.135-5.265
		C46.677,21.299,47.292,21.237,47.875,21.237z"/>
	<path fill="#E72730" d="M62.488,35.371c1.672,0,3.075-0.205,4.207-0.615l0.246-2.387c-1.386,0.369-2.694,0.553-3.925,0.553
		c-1.106,0-2-0.307-2.681-0.922s-1.078-1.387-1.193-2.312l7.922-0.135c0.049-0.672,0.073-1.219,0.073-1.637
		c0-1.508-0.422-2.734-1.267-3.677c-0.845-0.943-2.137-1.415-3.875-1.415c-1.902,0-3.389,0.642-4.458,1.925
		c-1.071,1.284-1.605,2.798-1.605,4.546c0,1.672,0.563,3.104,1.691,4.291C58.75,34.775,60.372,35.371,62.488,35.371z M61.848,24.976
		c1.608,0,2.411,0.943,2.411,2.829l-5.141,0.1C59.404,25.952,60.315,24.976,61.848,24.976z"/>
	<path fill="#E72730" d="M72.464,24.657h-0.197c0-0.156-0.07-0.685-0.209-1.587l-3.137,0.345c0.41,1.747,0.615,3.596,0.615,5.549
		c0,1.565-0.069,3.582-0.208,6.052h3.271c-0.049-1.765-0.073-4.281-0.073-7.552c0.385-1.083,1.181-1.625,2.386-1.625
		c0.623,0,1.238,0.123,1.845,0.369l0.713-2.878c-0.738-0.271-1.402-0.405-1.993-0.405C74.223,22.923,73.218,23.501,72.464,24.657z"
		/>
	<path fill="#E72730" d="M80.262,35.014h3.248c-0.123-3.043-0.185-6.109-0.185-9.201c0.664,0,1.636,0.025,2.915,0.074l0.099-2.448
		c-1.279,0.066-2.283,0.099-3.013,0.099c0-1.558,0.11-2.608,0.332-3.149c0.222-0.541,0.628-0.811,1.218-0.811
		c0.492,0,0.972,0.057,1.439,0.172l0.443-2.19c-0.607-0.139-1.325-0.209-2.153-0.209c-2.772,0-4.158,2.062-4.158,6.188
		c-0.5,0-1.185-0.029-2.055-0.087l-0.098,2.436c0.951-0.049,1.668-0.074,2.152-0.074C80.447,28.945,80.385,32.012,80.262,35.014z"/>
	<path fill="#E72730" d="M98.417,34.756l0.247-2.387c-1.386,0.369-2.694,0.553-3.925,0.553c-1.108,0-2-0.307-2.681-0.924
		c-0.681-0.613-1.079-1.385-1.194-2.311l7.922-0.136c0.048-0.674,0.074-1.219,0.074-1.637c0-1.508-0.422-2.734-1.267-3.678
		c-0.845-0.943-2.136-1.415-3.875-1.415c-1.903,0-3.389,0.642-4.459,1.925c-1.07,1.283-1.604,2.798-1.604,4.546
		c0,1.672,0.563,3.104,1.691,4.291c1.128,1.189,2.749,1.785,4.865,1.785C95.884,35.371,97.286,35.166,98.417,34.756z M93.571,24.976
		c1.607,0,2.411,0.943,2.411,2.829l-5.142,0.1C91.127,25.952,92.038,24.976,93.571,24.976z"/>
	<path fill="#E72730" d="M110.387,32.43c-1.083,0.328-1.989,0.492-2.72,0.492c-1.246,0-2.21-0.385-2.889-1.154
		c-0.68-0.771-1.022-1.717-1.022-2.83c0-1.024,0.288-1.889,0.861-2.589c0.574-0.7,1.357-1.051,2.349-1.051
		c0.937,0,1.78,0.156,2.534,0.467l0.419-2.51c-0.788-0.229-1.687-0.344-2.695-0.344c-2.066,0-3.694,0.642-4.883,1.925
		c-1.19,1.284-1.783,2.787-1.783,4.507c0,1.658,0.567,3.076,1.703,4.258c1.136,1.18,2.762,1.771,4.877,1.771
		c1.278,0,2.292-0.197,3.038-0.592L110.387,32.43z"/>
	<path fill="#E72730" d="M119.587,32.713c-0.518,0.139-1,0.209-1.453,0.209c-0.745,0-1.267-0.246-1.562-0.742
		c-0.294-0.498-0.443-1.477-0.443-2.934c0-1.199,0.009-2.344,0.025-3.434c0.779,0,1.792,0.025,3.039,0.075l0.098-2.449
		c-1.37,0.066-2.398,0.099-3.087,0.099c0-0.894,0.061-2.157,0.184-3.789l-2.915,0.356c-0.057,1.854-0.091,2.998-0.099,3.432
		c-0.541,0-1.127-0.025-1.758-0.074l-0.087,2.422c0.715-0.049,1.279-0.074,1.698-0.074c-0.017,1.566-0.024,2.969-0.024,4.208
		c0,2.059,0.336,3.448,1.008,4.17c0.673,0.723,1.673,1.082,3.001,1.082c0.87,0,1.59-0.121,2.165-0.369L119.587,32.713z"/>
	<path fill="#04394C" d="M133.215,25.407c-1.318-0.533-2.176-0.947-2.57-1.242c-0.449-0.345-0.676-0.792-0.676-1.341
		c0-1.034,0.967-1.55,2.902-1.55c1.287,0,2.484,0.201,3.592,0.603l0.455-2.73c-1.09-0.271-2.439-0.407-4.047-0.407
		c-1.961,0-3.461,0.398-4.508,1.193c-1.045,0.796-1.568,1.899-1.568,3.309c0,1.214,0.398,2.235,1.193,3.063
		c0.631,0.657,1.594,1.263,2.891,1.822c1.426,0.605,2.375,1.096,2.842,1.475c0.541,0.426,0.812,0.951,0.812,1.574
		c0,0.6-0.285,1.025-0.861,1.279c-0.571,0.254-1.517,0.381-2.828,0.381c-1.182,0-2.436-0.229-3.764-0.689l-0.604,2.744
		c1.346,0.377,2.801,0.564,4.367,0.564c4.607,0,6.914-1.602,6.914-4.809c0-1.338-0.465-2.459-1.391-3.371
		C135.666,26.596,134.617,25.973,133.215,25.407z"/>
	<path fill="#04394C" d="M143.498,35.014c-0.074-2.295-0.109-4.17-0.109-5.621h5.078c0,1.56-0.031,3.433-0.098,5.621h3.42
		c-0.098-1.977-0.146-4.264-0.146-6.863c0-2.533,0.049-4.625,0.146-6.273h-3.42c0.082,2.009,0.123,3.715,0.123,5.118h-5.129
		c0-1.535,0.047-3.24,0.135-5.118h-3.43c0.098,1.739,0.146,3.83,0.146,6.273c0,2.437-0.049,4.726-0.146,6.863H143.498z"/>
	<path fill="#04394C" d="M160.844,21.557c-2.092,0-3.811,0.695-5.154,2.085c-1.346,1.39-2.018,3.084-2.018,5.086
		c0,1.877,0.637,3.451,1.914,4.725c1.273,1.27,2.902,1.904,4.889,1.904c2.092,0,3.81-0.695,5.154-2.084
		c1.344-1.392,2.018-3.084,2.018-5.086c0-1.879-0.639-3.454-1.914-4.725S162.828,21.557,160.844,21.557z M163.271,31.611
		c-0.668,0.842-1.506,1.264-2.517,1.264c-1.063,0-1.95-0.428-2.653-1.279c-0.707-0.854-1.062-1.92-1.062-3.199
		c0-1.223,0.334-2.25,0.998-3.087c0.664-0.835,1.504-1.254,2.521-1.254c1.066,0,1.951,0.424,2.656,1.273
		c0.705,0.849,1.059,1.913,1.059,3.189C164.275,29.74,163.941,30.771,163.271,31.611z"/>
	<path fill="#04394C" d="M178.654,22.689c-0.984-0.582-2.088-0.874-3.309-0.874c-0.724,0-1.459,0.01-2.216,0.031
		c-0.754,0.021-1.278,0.031-1.573,0.031h-2.005c0.089,1.722,0.136,3.813,0.136,6.273c0,2.615-0.047,4.901-0.136,6.863h3.384
		c-0.066-2.066-0.101-3.693-0.101-4.884c0.131,0.009,0.365,0.015,0.701,0.015c1.846,0,3.405-0.375,4.68-1.121
		c1.277-0.746,1.914-1.943,1.914-3.591C180.131,24.185,179.639,23.271,178.654,22.689z M173.354,28.127
		c-0.196,0-0.371-0.006-0.518-0.014c0-1.354-0.045-2.702-0.135-4.047c0.508-0.098,0.996-0.148,1.463-0.148
		c1.869,0,2.805,0.673,2.805,2.018C176.969,27.396,175.764,28.127,173.354,28.127z"/>
	<path fill="#04394C" d="M46,39.234l0.016-0.447h-3.165l-0.017,0.453c0.57-0.025,1.011-0.039,1.325-0.039
		c0.012,0.418,0.019,0.936,0.019,1.553c0,0.729-0.013,1.453-0.039,2.18h0.583c-0.021-0.762-0.031-1.488-0.031-2.18
		c0-0.627,0.001-1.143,0.007-1.553C45.146,39.201,45.58,39.213,46,39.234z"/>
	<path fill="#04394C" d="M47.589,39.766c-0.423,0-0.791,0.156-1.103,0.463c-0.314,0.31-0.471,0.736-0.471,1.283
		c0,0.49,0.142,0.871,0.426,1.141c0.283,0.271,0.623,0.404,1.018,0.404c0.422,0,0.789-0.152,1.102-0.457
		c0.312-0.305,0.468-0.729,0.468-1.271c0-0.496-0.141-0.879-0.423-1.152C48.323,39.902,47.983,39.766,47.589,39.766z M48.232,42.287
		c-0.163,0.244-0.398,0.367-0.704,0.367c-0.31,0-0.548-0.129-0.715-0.385c-0.166-0.259-0.25-0.554-0.25-0.886
		c0-0.323,0.083-0.606,0.247-0.85c0.164-0.246,0.4-0.367,0.705-0.367c0.308,0,0.546,0.129,0.712,0.388
		c0.167,0.258,0.25,0.553,0.25,0.883C48.477,41.758,48.395,42.041,48.232,42.287z"/>
	<path fill="#04394C" d="M52.404,39.9l-0.573,0.022c0.021,0.408,0.031,1.203,0.031,2.386c-0.221,0.17-0.501,0.254-0.84,0.254
		c-0.302,0-0.496-0.103-0.582-0.306c-0.085-0.2-0.128-0.637-0.128-1.307c0-0.291,0.012-0.642,0.038-1.052l-0.592,0.023
		c0.036,0.42,0.054,0.789,0.054,1.102c0,0.056-0.002,0.158-0.006,0.31c-0.005,0.151-0.007,0.265-0.007,0.34
		c0,0.537,0.083,0.896,0.25,1.072c0.166,0.178,0.433,0.266,0.801,0.266c0.403,0,0.746-0.118,1.028-0.354h0.033
		c0,0.076,0.015,0.174,0.044,0.293l0.494-0.02c-0.047-0.464-0.07-0.923-0.07-1.373C52.378,40.852,52.387,40.301,52.404,39.9z"/>
	<path fill="#04394C" d="M54.122,42.344c-0.092-0.141-0.138-0.432-0.138-0.867c0-0.399,0.002-0.762,0.006-1.082
		c0.231,0,0.538,0.006,0.92,0.021l0.022-0.478c-0.403,0.021-0.709,0.031-0.917,0.031c0-0.191,0.018-0.512,0.054-0.957l-0.5,0.051
		c-0.022,0.479-0.032,0.781-0.032,0.906c-0.16,0-0.34-0.004-0.542-0.018l-0.02,0.463c0.232-0.014,0.406-0.02,0.526-0.02
		c-0.005,0.521-0.007,0.944-0.007,1.27c0,0.502,0.071,0.848,0.211,1.045c0.14,0.193,0.4,0.291,0.783,0.291
		c0.148,0,0.306-0.031,0.474-0.094L55,42.492c-0.162,0.043-0.283,0.062-0.366,0.062C54.385,42.555,54.214,42.486,54.122,42.344z"/>
	<path fill="#04394C" d="M57.764,42.219c-0.213-0.229-0.32-0.518-0.32-0.861c0-0.313,0.09-0.578,0.268-0.789
		c0.179-0.211,0.419-0.313,0.721-0.313c0.229,0,0.455,0.041,0.677,0.125l0.086-0.5c-0.16-0.053-0.365-0.078-0.617-0.078
		c-0.503,0-0.908,0.164-1.214,0.492c-0.306,0.326-0.458,0.717-0.458,1.172c0,0.429,0.146,0.793,0.437,1.099
		c0.291,0.303,0.711,0.455,1.261,0.455c0.289,0,0.519-0.049,0.691-0.146l0.032-0.428c-0.283,0.08-0.503,0.119-0.662,0.119
		C58.276,42.562,57.975,42.447,57.764,42.219z"/>
	<path fill="#04394C" d="M61.313,39.766c-0.445,0-0.8,0.168-1.064,0.502c-0.265,0.336-0.397,0.734-0.397,1.197
		c0,0.432,0.144,0.799,0.435,1.102c0.29,0.302,0.71,0.451,1.262,0.451c0.393,0,0.693-0.041,0.901-0.123l0.054-0.451
		c-0.282,0.08-0.584,0.119-0.907,0.119c-0.361,0-0.65-0.104-0.87-0.312c-0.219-0.209-0.338-0.469-0.36-0.778l2.188-0.039
		c0.008-0.156,0.012-0.279,0.012-0.369c0-0.379-0.107-0.689-0.319-0.935C62.035,39.887,61.724,39.766,61.313,39.766z M60.387,41.104
		c0.092-0.619,0.392-0.93,0.902-0.93c0.499,0,0.748,0.299,0.748,0.895L60.387,41.104z"/>
	<path fill="#04394C" d="M67.456,38.432l-0.604,0.023c0.029,0.506,0.045,1.023,0.045,1.551h-0.026
		c-0.148-0.141-0.395-0.211-0.738-0.211c-0.482,0-0.856,0.17-1.121,0.51c-0.266,0.34-0.398,0.744-0.398,1.213
		c0,0.414,0.119,0.769,0.357,1.062c0.239,0.293,0.561,0.438,0.964,0.438c0.439,0,0.771-0.121,0.994-0.363h0.035
		c0,0.103,0.008,0.199,0.025,0.291l0.474-0.016c-0.044-0.699-0.066-1.492-0.066-2.381C67.396,39.678,67.416,38.971,67.456,38.432z
		 M66.135,42.584c-0.3,0-0.534-0.109-0.702-0.33c-0.168-0.223-0.253-0.492-0.253-0.816c0-0.358,0.089-0.66,0.268-0.899
		c0.178-0.236,0.447-0.356,0.806-0.356c0.257,0,0.471,0.071,0.643,0.215c0.036,0.61,0.054,1.246,0.054,1.905
		C66.782,42.49,66.511,42.584,66.135,42.584z"/>
	<path fill="#04394C" d="M69.775,39.766c-0.423,0-0.79,0.156-1.104,0.463c-0.313,0.31-0.469,0.736-0.469,1.283
		c0,0.49,0.141,0.871,0.425,1.141c0.283,0.271,0.622,0.404,1.017,0.404c0.422,0,0.79-0.152,1.102-0.457s0.468-0.729,0.468-1.271
		c0-0.496-0.141-0.879-0.423-1.152C70.508,39.902,70.169,39.766,69.775,39.766z M70.418,42.287
		c-0.164,0.244-0.398,0.367-0.703,0.367c-0.311,0-0.548-0.129-0.715-0.385c-0.167-0.259-0.25-0.554-0.25-0.886
		c0-0.323,0.082-0.606,0.246-0.85c0.165-0.246,0.399-0.367,0.705-0.367c0.308,0,0.545,0.129,0.712,0.388
		c0.167,0.258,0.25,0.553,0.25,0.883C70.663,41.758,70.581,42.041,70.418,42.287z"/>
	<path fill="#04394C" d="M74.647,40.869c0-0.398-0.096-0.678-0.29-0.834c-0.193-0.154-0.465-0.234-0.818-0.234
		c-0.359,0-0.695,0.143-1.009,0.428h-0.025l-0.061-0.389l-0.561,0.08c0.094,0.467,0.14,0.947,0.14,1.445
		c0,0.322-0.018,0.846-0.054,1.568h0.58c-0.008-0.845-0.013-1.627-0.013-2.353c0.254-0.22,0.533-0.328,0.834-0.328
		c0.247,0,0.436,0.062,0.569,0.181c0.132,0.118,0.198,0.344,0.198,0.67c0,0.662-0.023,1.27-0.069,1.83h0.579
		c-0.009-0.705-0.012-1.234-0.012-1.588c0-0.039,0.002-0.119,0.006-0.238C74.645,40.99,74.647,40.908,74.647,40.869z"/>
	<path fill="#04394C" d="M76.346,42.344c-0.092-0.141-0.138-0.432-0.138-0.867c0-0.399,0.001-0.762,0.006-1.082
		c0.231,0,0.538,0.006,0.92,0.021l0.022-0.478c-0.403,0.021-0.708,0.031-0.917,0.031c0-0.191,0.019-0.512,0.054-0.957l-0.5,0.051
		c-0.021,0.479-0.032,0.781-0.032,0.906c-0.159,0-0.339-0.004-0.541-0.018l-0.019,0.463c0.231-0.014,0.406-0.02,0.525-0.02
		c-0.004,0.521-0.006,0.944-0.006,1.27c0,0.502,0.07,0.848,0.209,1.045C76.07,42.902,76.332,43,76.714,43
		c0.148,0,0.306-0.031,0.474-0.094l0.039-0.414c-0.162,0.043-0.284,0.062-0.366,0.062C76.61,42.555,76.438,42.486,76.346,42.344z"/>
	<path fill="#04394C" d="M80.823,41.164c-0.262,0.682-0.393,1.072-0.393,1.17h-0.029c0-0.104-0.138-0.506-0.415-1.215
		c-0.276-0.705-0.413-1.111-0.413-1.211h-0.617c0,0.086,0.188,0.574,0.567,1.465s0.569,1.41,0.569,1.561h0.427
		c0-0.117,0.215-0.623,0.645-1.521c0.43-0.899,0.645-1.402,0.645-1.504h-0.592C81.216,40.064,81.085,40.482,80.823,41.164z"/>
	<path fill="#04394C" d="M83.837,39.766c-0.422,0-0.79,0.156-1.104,0.463c-0.313,0.31-0.469,0.736-0.469,1.283
		c0,0.49,0.142,0.871,0.424,1.141c0.284,0.271,0.623,0.404,1.018,0.404c0.422,0,0.79-0.152,1.102-0.457s0.468-0.729,0.468-1.271
		c0-0.496-0.141-0.879-0.423-1.152C84.571,39.902,84.232,39.766,83.837,39.766z M84.481,42.287
		c-0.165,0.244-0.398,0.367-0.704,0.367c-0.31,0-0.548-0.129-0.715-0.385c-0.167-0.259-0.25-0.554-0.25-0.886
		c0-0.323,0.083-0.606,0.247-0.85c0.165-0.246,0.399-0.367,0.706-0.367c0.308,0,0.544,0.129,0.712,0.388
		c0.166,0.258,0.249,0.553,0.249,0.883C84.726,41.758,84.644,42.041,84.481,42.287z"/>
	<path fill="#04394C" d="M88.653,39.9l-0.574,0.022c0.021,0.408,0.032,1.203,0.032,2.386c-0.221,0.17-0.5,0.254-0.841,0.254
		c-0.301,0-0.496-0.103-0.581-0.306c-0.086-0.2-0.129-0.637-0.129-1.307c0-0.291,0.014-0.642,0.039-1.052l-0.592,0.023
		c0.036,0.42,0.054,0.789,0.054,1.102c0,0.056-0.002,0.158-0.006,0.31c-0.005,0.151-0.007,0.265-0.007,0.34
		c0,0.537,0.084,0.896,0.25,1.072c0.167,0.178,0.434,0.266,0.801,0.266c0.403,0,0.746-0.118,1.028-0.354h0.032
		c0,0.076,0.014,0.174,0.044,0.293l0.494-0.02c-0.047-0.464-0.071-0.923-0.071-1.373C88.626,40.852,88.635,40.301,88.653,39.9z"/>
	<path fill="#04394C" d="M91.219,41.467c-0.138-0.109-0.35-0.219-0.638-0.332c-0.264-0.104-0.443-0.191-0.534-0.264
		c-0.093-0.074-0.137-0.17-0.137-0.289c0-0.236,0.203-0.354,0.612-0.354c0.301,0,0.566,0.045,0.796,0.135l0.099-0.455
		c-0.222-0.062-0.514-0.094-0.88-0.094c-0.373,0-0.652,0.086-0.834,0.26c-0.182,0.174-0.274,0.381-0.274,0.623
		c0,0.232,0.1,0.428,0.299,0.59c0.136,0.111,0.355,0.227,0.657,0.346c0.238,0.094,0.408,0.178,0.512,0.254
		c0.102,0.074,0.154,0.176,0.154,0.303c0,0.265-0.231,0.396-0.694,0.396c-0.323,0-0.623-0.053-0.899-0.158l-0.098,0.47
		C89.663,42.965,89.99,43,90.34,43c0.792,0,1.187-0.311,1.187-0.932C91.527,41.836,91.425,41.635,91.219,41.467z"/>
	<path fill="#04394C" d="M95.972,41.377c0.009-0.264,0.014-0.443,0.014-0.545c0-0.373-0.103-0.641-0.31-0.797
		c-0.205-0.154-0.498-0.234-0.875-0.234c-0.414,0-0.781,0.047-1.099,0.137l-0.054,0.441c0.323-0.084,0.65-0.125,0.983-0.125
		c0.283,0,0.493,0.043,0.632,0.131c0.139,0.086,0.209,0.262,0.209,0.521c0,0.066-0.003,0.125-0.009,0.176
		c-0.75,0.01-1.262,0.115-1.539,0.314c-0.276,0.196-0.414,0.461-0.414,0.787c0,0.266,0.088,0.469,0.264,0.612
		c0.176,0.144,0.386,0.215,0.631,0.215c0.45,0,0.805-0.118,1.067-0.356h0.032c0,0.094,0.012,0.193,0.038,0.297l0.5-0.018
		c-0.057-0.304-0.086-0.648-0.086-1.033C95.957,41.812,95.962,41.639,95.972,41.377z M94.643,42.574
		c-0.409,0-0.612-0.145-0.612-0.434c0-0.298,0.174-0.5,0.521-0.607c0.209-0.061,0.512-0.09,0.912-0.09
		c0,0.258,0.005,0.547,0.016,0.871C95.271,42.488,94.992,42.574,94.643,42.574z"/>
	<path fill="#04394C" d="M98.44,41.164c-0.263,0.682-0.394,1.072-0.394,1.17h-0.028c0-0.104-0.139-0.506-0.414-1.215
		c-0.276-0.705-0.415-1.111-0.415-1.211h-0.617c0,0.086,0.188,0.574,0.568,1.465c0.38,0.891,0.568,1.41,0.568,1.561h0.427
		c0-0.117,0.214-0.623,0.645-1.521c0.43-0.899,0.645-1.402,0.645-1.504h-0.591C98.833,40.064,98.702,40.482,98.44,41.164z"/>
	<path fill="#04394C" d="M101.343,39.766c-0.446,0-0.802,0.168-1.066,0.502c-0.265,0.336-0.396,0.734-0.396,1.197
		c0,0.432,0.145,0.799,0.434,1.102c0.291,0.302,0.711,0.451,1.263,0.451c0.392,0,0.694-0.041,0.901-0.123l0.054-0.451
		c-0.283,0.08-0.586,0.119-0.907,0.119c-0.362,0-0.652-0.104-0.869-0.312c-0.219-0.209-0.339-0.469-0.36-0.778l2.188-0.039
		c0.008-0.156,0.013-0.279,0.013-0.369c0-0.379-0.106-0.689-0.32-0.935C102.064,39.887,101.752,39.766,101.343,39.766z
		 M100.416,41.104c0.091-0.619,0.392-0.93,0.901-0.93c0.498,0,0.748,0.299,0.748,0.895L100.416,41.104z"/>
	<path fill="#04394C" d="M103.893,42.443L103.893,42.443c0-0.08,0.238-0.424,0.713-1.023c0.382-0.482,0.662-0.82,0.838-1.014
		l0.033-0.498h-2.21l-0.02,0.498c0.397-0.027,0.939-0.043,1.621-0.043l0.003,0.037c0,0.074-0.251,0.418-0.754,1.031
		c-0.464,0.562-0.751,0.897-0.864,1.006l-0.025,0.496h2.321l0.019-0.515c-0.475,0.031-1.033,0.052-1.674,0.052L103.893,42.443
		L103.893,42.443z"/>
	<path fill="#04394C" d="M109.3,39.795c-0.453,0-0.783,0.121-0.991,0.361h-0.025c0-0.793,0.011-1.371,0.031-1.738l-0.629,0.035
		c0.07,0.633,0.104,1.334,0.104,2.104c0,0.851-0.014,1.644-0.042,2.377h0.468l0.08-0.127h0.025c0.14,0.144,0.405,0.211,0.796,0.211
		c0.461,0,0.824-0.17,1.089-0.514c0.266-0.34,0.397-0.744,0.397-1.209c0-0.414-0.119-0.768-0.357-1.061
		C110.009,39.941,109.693,39.795,109.3,39.795z M109.778,42.264c-0.174,0.244-0.436,0.367-0.784,0.367
		c-0.276,0-0.5-0.074-0.672-0.219c-0.033-0.469-0.05-1.08-0.05-1.838c0.166-0.23,0.439-0.346,0.822-0.346
		c0.294,0,0.526,0.108,0.694,0.332c0.168,0.221,0.251,0.489,0.251,0.811C110.039,41.723,109.952,42.02,109.778,42.264z"/>
	<path fill="#04394C" d="M112.698,39.766c-0.447,0-0.802,0.168-1.065,0.502c-0.264,0.336-0.397,0.734-0.397,1.197
		c0,0.432,0.146,0.799,0.435,1.102c0.291,0.302,0.71,0.451,1.263,0.451c0.394,0,0.694-0.041,0.901-0.123l0.054-0.451
		c-0.282,0.08-0.584,0.119-0.907,0.119c-0.361,0-0.65-0.104-0.871-0.312c-0.217-0.209-0.337-0.469-0.358-0.778l2.188-0.039
		c0.008-0.156,0.012-0.279,0.012-0.369c0-0.379-0.106-0.689-0.319-0.935C113.419,39.887,113.107,39.766,112.698,39.766z
		 M111.771,41.104c0.092-0.619,0.392-0.93,0.902-0.93c0.499,0,0.749,0.299,0.749,0.895L111.771,41.104z"/>
	<path fill="#04394C" d="M116.401,41.467c-0.137-0.109-0.35-0.219-0.636-0.332c-0.265-0.104-0.444-0.191-0.535-0.264
		c-0.092-0.074-0.137-0.17-0.137-0.289c0-0.236,0.203-0.354,0.611-0.354c0.301,0,0.568,0.045,0.796,0.135l0.098-0.455
		c-0.22-0.062-0.513-0.094-0.878-0.094c-0.374,0-0.652,0.086-0.835,0.26c-0.183,0.174-0.274,0.381-0.274,0.623
		c0,0.232,0.101,0.428,0.3,0.59c0.137,0.111,0.354,0.227,0.656,0.346c0.237,0.094,0.408,0.178,0.512,0.254
		c0.102,0.074,0.154,0.176,0.154,0.303c0,0.265-0.231,0.396-0.695,0.396c-0.322,0-0.623-0.053-0.898-0.158l-0.098,0.47
		c0.304,0.069,0.631,0.104,0.981,0.104c0.792,0,1.188-0.312,1.188-0.933C116.71,41.836,116.608,41.635,116.401,41.467z"/>
	<path fill="#04394C" d="M118.889,39.766c-0.423,0-0.792,0.156-1.103,0.463c-0.313,0.31-0.47,0.736-0.47,1.283
		c0,0.49,0.142,0.871,0.426,1.141c0.282,0.271,0.622,0.404,1.017,0.404c0.422,0,0.79-0.152,1.102-0.457s0.467-0.729,0.467-1.271
		c0-0.496-0.141-0.879-0.423-1.152C119.622,39.902,119.285,39.766,118.889,39.766z M119.532,42.287
		c-0.163,0.244-0.398,0.367-0.704,0.367c-0.311,0-0.547-0.129-0.715-0.385c-0.165-0.259-0.249-0.554-0.249-0.886
		c0-0.323,0.082-0.606,0.247-0.85c0.165-0.246,0.399-0.367,0.706-0.367s0.544,0.129,0.71,0.388c0.168,0.258,0.25,0.553,0.25,0.883
		C119.777,41.758,119.696,42.041,119.532,42.287z"/>
	<path fill="#04394C" d="M121.633,39.848l-0.637,0.084c0.075,0.416,0.111,0.933,0.111,1.545c0,0.545-0.014,1.031-0.044,1.457h0.578
		c-0.031-0.463-0.045-0.949-0.045-1.457C121.596,40.832,121.607,40.289,121.633,39.848z"/>
	<path fill="#04394C" d="M121.436,38.604c-0.126,0-0.227,0.041-0.299,0.119c-0.072,0.078-0.108,0.17-0.108,0.277
		c0,0.098,0.03,0.18,0.09,0.248c0.061,0.07,0.146,0.104,0.254,0.104c0.127,0,0.227-0.039,0.296-0.119
		c0.069-0.078,0.104-0.172,0.104-0.282c0-0.093-0.031-0.175-0.09-0.242C121.622,38.639,121.54,38.604,121.436,38.604z"/>
	<path fill="#04394C" d="M125.18,40.869c0-0.398-0.096-0.678-0.287-0.834c-0.194-0.154-0.467-0.234-0.819-0.234
		c-0.359,0-0.695,0.143-1.011,0.428h-0.024l-0.06-0.389l-0.562,0.08c0.095,0.467,0.14,0.947,0.14,1.445
		c0,0.322-0.019,0.846-0.053,1.568h0.579c-0.008-0.845-0.015-1.627-0.015-2.353c0.257-0.22,0.533-0.328,0.836-0.328
		c0.246,0,0.437,0.062,0.566,0.181c0.133,0.118,0.199,0.344,0.199,0.67c0,0.662-0.021,1.27-0.07,1.83h0.58
		c-0.008-0.705-0.012-1.234-0.012-1.588c0-0.039,0.002-0.119,0.006-0.238C125.18,40.99,125.18,40.908,125.18,40.869z"/>
	<path fill="#04394C" d="M130.168,38.432l-0.605,0.023c0.029,0.506,0.045,1.023,0.045,1.551h-0.024
		c-0.147-0.141-0.396-0.211-0.737-0.211c-0.482,0-0.857,0.17-1.121,0.51c-0.267,0.34-0.398,0.744-0.398,1.213
		c0,0.414,0.119,0.769,0.357,1.062c0.237,0.293,0.561,0.438,0.965,0.438c0.438,0,0.77-0.121,0.992-0.363h0.034
		c0,0.103,0.009,0.199,0.025,0.291l0.475-0.016c-0.045-0.699-0.065-1.492-0.065-2.381C130.107,39.678,130.127,38.971,130.168,38.432
		z M128.848,42.584c-0.301,0-0.535-0.109-0.705-0.33c-0.168-0.223-0.254-0.492-0.254-0.816c0-0.358,0.09-0.66,0.269-0.899
		c0.18-0.236,0.448-0.356,0.807-0.356c0.259,0,0.472,0.071,0.646,0.215c0.035,0.61,0.053,1.246,0.053,1.905
		C129.492,42.49,129.223,42.584,128.848,42.584z"/>
	<path fill="#04394C" d="M132.373,39.766c-0.443,0-0.799,0.168-1.062,0.502c-0.266,0.336-0.397,0.734-0.397,1.197
		c0,0.432,0.146,0.799,0.437,1.102c0.289,0.302,0.709,0.451,1.262,0.451c0.393,0,0.693-0.041,0.9-0.123l0.057-0.451
		c-0.283,0.08-0.586,0.119-0.908,0.119c-0.361,0-0.65-0.104-0.871-0.312c-0.217-0.209-0.338-0.469-0.357-0.778l2.188-0.039
		c0.008-0.156,0.012-0.279,0.012-0.369c0-0.379-0.106-0.689-0.319-0.935C133.096,39.887,132.783,39.766,132.373,39.766z
		 M131.447,41.104c0.092-0.619,0.391-0.93,0.9-0.93c0.5,0,0.75,0.299,0.75,0.895L131.447,41.104z"/>
	<path fill="#04394C" d="M135.938,39.795c-0.461,0-0.795,0.121-1,0.361h-0.03l-0.052-0.316l-0.559,0.08
		c0.107,0.559,0.16,1.352,0.16,2.375c0,0.83-0.025,1.527-0.074,2.092h0.6c-0.014-0.463-0.02-0.988-0.02-1.58h0.031
		c0.123,0.144,0.381,0.211,0.771,0.211c0.467,0,0.832-0.172,1.094-0.518s0.393-0.746,0.393-1.205c0-0.408-0.117-0.76-0.354-1.055
		C136.664,39.943,136.344,39.795,135.938,39.795z M136.428,42.26c-0.176,0.246-0.436,0.371-0.785,0.371
		c-0.276,0-0.502-0.074-0.672-0.219c0-0.512-0.018-1.125-0.053-1.838c0.166-0.23,0.439-0.346,0.822-0.346
		c0.301,0,0.531,0.11,0.697,0.336c0.166,0.225,0.248,0.492,0.248,0.807C136.686,41.717,136.6,42.014,136.428,42.26z"/>
	<path fill="#04394C" d="M140.627,39.9l-0.57,0.022c0.021,0.408,0.029,1.203,0.029,2.386c-0.221,0.17-0.5,0.254-0.84,0.254
		c-0.301,0-0.496-0.103-0.582-0.306c-0.084-0.2-0.127-0.637-0.127-1.307c0-0.291,0.012-0.642,0.037-1.052l-0.592,0.023
		c0.035,0.42,0.055,0.789,0.055,1.102c0,0.056-0.002,0.158-0.008,0.31c-0.004,0.151-0.006,0.265-0.006,0.34
		c0,0.537,0.082,0.896,0.25,1.072c0.166,0.178,0.434,0.266,0.801,0.266c0.404,0,0.746-0.118,1.027-0.354h0.032
		c0,0.076,0.015,0.174,0.043,0.293l0.494-0.02c-0.047-0.464-0.067-0.923-0.067-1.373C140.604,40.852,140.611,40.301,140.627,39.9z"
		/>
	<path fill="#04394C" d="M142.051,39.848l-0.637,0.084c0.074,0.416,0.111,0.933,0.111,1.545c0,0.545-0.017,1.031-0.045,1.457h0.578
		c-0.029-0.463-0.045-0.949-0.045-1.457C142.014,40.832,142.025,40.289,142.051,39.848z"/>
	<path fill="#04394C" d="M141.854,38.604c-0.127,0-0.227,0.041-0.299,0.119s-0.106,0.17-0.106,0.277c0,0.098,0.028,0.18,0.09,0.248
		c0.062,0.07,0.146,0.104,0.252,0.104c0.129,0,0.228-0.039,0.297-0.119c0.072-0.078,0.104-0.172,0.104-0.282
		c0-0.093-0.028-0.175-0.09-0.242C142.039,38.639,141.959,38.604,141.854,38.604z"/>
	<path fill="#04394C" d="M144.615,41.467c-0.139-0.109-0.352-0.219-0.637-0.332c-0.267-0.104-0.443-0.191-0.537-0.264
		c-0.09-0.074-0.135-0.17-0.135-0.289c0-0.236,0.2-0.354,0.61-0.354c0.304,0,0.565,0.045,0.797,0.135l0.099-0.455
		c-0.224-0.062-0.515-0.094-0.879-0.094c-0.373,0-0.652,0.086-0.834,0.26c-0.185,0.174-0.275,0.381-0.275,0.623
		c0,0.232,0.102,0.428,0.301,0.59c0.137,0.111,0.354,0.227,0.656,0.346c0.238,0.094,0.408,0.178,0.51,0.254
		c0.105,0.074,0.156,0.176,0.156,0.303c0,0.265-0.232,0.396-0.697,0.396c-0.32,0-0.621-0.053-0.895-0.158l-0.099,0.47
		c0.304,0.069,0.63,0.104,0.979,0.104c0.793,0,1.188-0.312,1.188-0.933C144.926,41.836,144.82,41.635,144.615,41.467z"/>
	<path fill="#04394C" d="M147.801,42.219c-0.213-0.229-0.318-0.518-0.318-0.861c0-0.313,0.088-0.578,0.267-0.789
		s0.418-0.313,0.719-0.313c0.23,0,0.455,0.041,0.681,0.125l0.086-0.5c-0.16-0.053-0.365-0.078-0.619-0.078
		c-0.502,0-0.906,0.164-1.211,0.492c-0.307,0.326-0.459,0.717-0.459,1.172c0,0.429,0.145,0.793,0.436,1.099
		c0.291,0.303,0.711,0.455,1.262,0.455c0.287,0,0.519-0.049,0.691-0.146l0.029-0.428c-0.283,0.08-0.502,0.119-0.662,0.119
		C148.312,42.562,148.012,42.447,147.801,42.219z"/>
	<path fill="#04394C" d="M152.684,41.109c0.004-0.119,0.006-0.197,0.006-0.238c0-0.396-0.094-0.676-0.285-0.832
		c-0.19-0.158-0.454-0.238-0.795-0.238c-0.381,0-0.729,0.141-1.049,0.422h-0.02c0-0.555,0.008-1.154,0.027-1.805l-0.607,0.033
		c0.062,0.506,0.094,1.209,0.094,2.105c0,1.021-0.01,1.813-0.029,2.377h0.562c-0.017-0.41-0.024-1.193-0.024-2.354
		c0.278-0.22,0.576-0.326,0.895-0.326c0.229,0,0.404,0.062,0.533,0.181c0.129,0.118,0.193,0.352,0.193,0.694
		c0,0.646-0.023,1.244-0.07,1.806h0.58c-0.008-0.705-0.014-1.209-0.014-1.517C152.678,41.33,152.68,41.227,152.684,41.109z"/>
	<path fill="#04394C" d="M154.881,39.766c-0.445,0-0.801,0.168-1.064,0.502c-0.264,0.336-0.396,0.734-0.396,1.197
		c0,0.432,0.146,0.799,0.437,1.102c0.289,0.302,0.709,0.451,1.262,0.451c0.395,0,0.693-0.041,0.9-0.123l0.057-0.451
		c-0.283,0.08-0.588,0.119-0.91,0.119c-0.359,0-0.648-0.104-0.869-0.312c-0.219-0.209-0.338-0.469-0.359-0.778l2.189-0.039
		c0.008-0.156,0.012-0.279,0.012-0.369c0-0.379-0.106-0.689-0.32-0.935C155.604,39.887,155.291,39.766,154.881,39.766z
		 M153.955,41.104c0.092-0.619,0.391-0.93,0.9-0.93c0.5,0,0.75,0.299,0.75,0.895L153.955,41.104z"/>
	<path fill="#04394C" d="M157.432,42.443L157.432,42.443c0-0.08,0.238-0.424,0.713-1.023c0.383-0.482,0.662-0.82,0.838-1.014
		l0.031-0.498h-2.209l-0.02,0.498c0.4-0.027,0.939-0.043,1.621-0.043l0.004,0.037c0,0.074-0.252,0.418-0.756,1.031
		c-0.461,0.562-0.748,0.897-0.861,1.006l-0.027,0.496h2.322l0.02-0.515c-0.475,0.031-1.032,0.052-1.676,0.052V42.443L157.432,42.443
		z"/>
	<path fill="#04394C" d="M162.844,41.164c-0.262,0.682-0.393,1.072-0.393,1.17h-0.029c0-0.104-0.137-0.506-0.412-1.215
		c-0.277-0.705-0.416-1.111-0.416-1.211h-0.617c0,0.086,0.189,0.574,0.568,1.465s0.568,1.41,0.568,1.561h0.428
		c0-0.117,0.215-0.623,0.645-1.521c0.43-0.899,0.644-1.402,0.644-1.504h-0.591C163.238,40.064,163.107,40.482,162.844,41.164z"/>
	<path fill="#04394C" d="M165.859,39.766c-0.424,0-0.791,0.156-1.104,0.463c-0.313,0.31-0.471,0.736-0.471,1.283
		c0,0.49,0.143,0.871,0.426,1.141c0.283,0.271,0.623,0.404,1.019,0.404c0.422,0,0.789-0.152,1.102-0.457
		c0.311-0.305,0.469-0.729,0.469-1.271c0-0.496-0.143-0.879-0.424-1.152C166.592,39.902,166.254,39.766,165.859,39.766z
		 M166.502,42.287c-0.164,0.244-0.396,0.367-0.703,0.367c-0.311,0-0.549-0.129-0.717-0.385c-0.166-0.259-0.248-0.554-0.248-0.886
		c0-0.323,0.08-0.606,0.246-0.85c0.166-0.246,0.398-0.367,0.705-0.367c0.309,0,0.545,0.129,0.713,0.388
		c0.166,0.258,0.25,0.553,0.25,0.883C166.748,41.758,166.666,42.041,166.502,42.287z"/>
	<path fill="#04394C" d="M170.674,39.9l-0.574,0.022c0.023,0.408,0.033,1.203,0.033,2.386c-0.221,0.17-0.502,0.254-0.842,0.254
		c-0.301,0-0.496-0.103-0.582-0.306c-0.084-0.2-0.127-0.637-0.127-1.307c0-0.291,0.012-0.642,0.037-1.052l-0.592,0.023
		c0.037,0.42,0.055,0.789,0.055,1.102c0,0.056-0.004,0.158-0.006,0.31c-0.004,0.151-0.008,0.265-0.008,0.34
		c0,0.537,0.084,0.896,0.25,1.072s0.434,0.266,0.801,0.266c0.404,0,0.746-0.118,1.029-0.354h0.029c0,0.076,0.016,0.174,0.045,0.293
		l0.495-0.02c-0.047-0.464-0.069-0.923-0.069-1.373C170.648,40.852,170.656,40.301,170.674,39.9z"/>
	<path fill="#04394C" d="M173.24,41.467c-0.139-0.109-0.352-0.219-0.637-0.332c-0.267-0.104-0.445-0.191-0.535-0.264
		c-0.09-0.074-0.137-0.17-0.137-0.289c0-0.236,0.202-0.354,0.61-0.354c0.301,0,0.565,0.045,0.797,0.135l0.099-0.455
		c-0.222-0.062-0.515-0.094-0.879-0.094c-0.375,0-0.652,0.086-0.834,0.26c-0.183,0.174-0.273,0.381-0.273,0.623
		c0,0.232,0.1,0.428,0.299,0.59c0.135,0.111,0.354,0.227,0.656,0.346c0.236,0.094,0.408,0.178,0.512,0.254
		c0.102,0.074,0.154,0.176,0.154,0.303c0,0.265-0.232,0.396-0.695,0.396c-0.322,0-0.621-0.053-0.898-0.158l-0.098,0.47
		c0.305,0.069,0.631,0.104,0.98,0.104c0.793,0,1.188-0.312,1.188-0.933C173.549,41.836,173.447,41.635,173.24,41.467z"/>
	<path fill="#04394C" d="M176.115,42.057c-0.15,0-0.268,0.047-0.352,0.139c-0.089,0.093-0.13,0.199-0.13,0.322
		c0,0.115,0.033,0.215,0.103,0.297c0.07,0.082,0.168,0.123,0.293,0.123c0.147,0,0.264-0.047,0.35-0.143
		c0.084-0.096,0.125-0.207,0.125-0.33c0-0.115-0.033-0.213-0.102-0.291C176.336,42.096,176.24,42.057,176.115,42.057z"/>
	<path fill="#04394C" d="M176.455,39.215c0-0.338-0.096-0.506-0.289-0.506c-0.25,0-0.375,0.182-0.375,0.545
		c0,0.414,0.057,1.072,0.166,1.969h0.234C176.367,40.34,176.455,39.672,176.455,39.215z"/>
	<path fill="#F8B532" d="M9.569,23.005c-0.244,0-0.501,0.026-0.772,0.078c0.034,0.644,0.052,1.363,0.052,2.161
		c0.09,0.007,0.195,0.01,0.314,0.01c0.739,0,1.271-0.131,1.595-0.393c0.188-0.189,0.284-0.438,0.284-0.746
		C11.042,23.375,10.55,23.005,9.569,23.005z"/>
	<path fill="#04394C" d="M37.66,30.148c-0.518-0.111-0.912,0.078-1.151,0.549c-0.122,0.244-0.183,0.508-0.189,0.771
		c-0.026,0.914-0.22,1.806-0.361,2.703c-0.149,0.951-0.393,1.881-0.661,2.812c-0.139-0.064-0.118-0.158-0.129-0.236
		c-0.351-2.225-0.88-4.395-1.881-6.43c-0.336-0.681-0.688-1.351-1.15-1.955c-0.37-0.48-0.923-0.605-1.374-0.332
		c-0.47,0.283-0.634,0.846-0.394,1.396c0.095,0.22,0.213,0.429,0.334,0.634c0.909,1.547,1.518,3.213,1.937,4.95
		c0.222,0.923,0.236,1.849,0.188,2.865c-0.084-0.119-0.126-0.168-0.159-0.226c-0.523-0.93-1.042-1.858-1.628-2.75
		c-1.323-2.01-2.902-3.774-4.893-5.147c-0.494-0.338-0.961-0.299-1.33,0.08c-0.381,0.392-0.421,0.965-0.101,1.424
		c0.18,0.261,0.434,0.437,0.676,0.625c1.172,0.908,2.173,1.981,3.08,3.146c0.057,0.076,0.145,0.187,0.125,0.25
		c-0.043,0.138-0.193,0.074-0.295,0.066c-0.349-0.023-0.698-0.051-1.046-0.094c-2.477-0.297-4.615,0.463-6.477,2.076
		c-0.632,0.549-1.176,1.172-1.47,1.969c-0.241,0.654,0.167,1.197,0.859,1.172c0.514-0.018,0.902-0.277,1.217-0.658
		c0.558-0.676,1.176-1.281,1.95-1.707c2.35-1.285,5.122-0.963,7.15,0.836c0.176,0.156,0.333,0.275,0.593,0.17
		c1.046-0.424,2.141-0.66,3.255-0.807c0.774-0.1,1.54-0.344,2.331-0.129c0.077,0.021,0.189,0.002,0.196,0.109
		c0.004,0.053-0.061,0.121-0.109,0.164c-0.269,0.221-0.532,0.457-0.818,0.658c-1.105,0.77-2.178,1.58-3.229,2.42
		c-0.317,0.254-0.415,0.535-0.335,0.916c0.123,0.584,0.116,1.176,0.042,1.76c-0.312,2.451-2.1,4.469-4.477,5.082
		c-2.442,0.633-5.032-0.277-6.506-2.271c-0.668-0.904-1.002-1.926-1.161-3.025c-0.101-0.698-0.606-1.106-1.195-1.057
		c-0.601,0.051-0.928,0.48-0.937,1.232c-0.01,0.889,0.266,1.709,0.617,2.51c2.016,4.596,7.621,6.367,11.892,3.766
		c1.611-0.979,2.719-2.399,3.556-4.055c1.802-3.562,3.068-7.309,3.808-11.229c0.251-1.332,0.519-2.67,0.445-4.041
		C38.425,30.629,38.111,30.246,37.66,30.148z"/>
	<path fill="#F8B532" d="M18.699,14.294c2.789,0,4.958,0.002,7.745,0H10.685C13.458,14.295,15.924,14.295,18.699,14.294z"/>
	<path fill="#F8B532" d="M17.704,46.074c-0.251-0.725-0.355-1.467-0.314-2.232c0.045-0.893,0.606-1.568,1.413-1.686
		c0.959-0.137,1.791,0.32,2.085,1.176c0.096,0.275,0.154,0.568,0.197,0.857c0.122,0.815,0.417,1.541,0.833,2.156
		c0.958,1.45,2.602,2.409,4.471,2.409c2.955,0,5.352-2.396,5.352-5.353c0-0.504-0.073-0.989-0.203-1.45l0,0
		c-0.333,0.323-0.662,0.655-0.981,1c-1.385,1.479-2.671,3.045-3.863,4.7c-0.2,0.277-0.31,0.24-0.441-0.057
		c-0.771-1.736-1.572-3.455-2.604-5.045c-0.372-0.574-0.506-0.766-0.969-1.25c-0.128-0.131-0.167-0.219-0.128-0.309
		c0.023-0.055,0.074-0.109,0.151-0.176c0.428-0.367,0.899-0.64,1.425-0.799c0.928-0.281,1.638,0.043,2.111,0.944
		c0.344,0.658,0.333,1.022,0.499,1.761c0.007,0.03,0.017,0.062,0.028,0.094c0.001,0.004,0.002,0.008,0.003,0.012
		c0.008,0.023,0.018,0.049,0.027,0.072c0.004,0.012,0.009,0.022,0.013,0.033c0.029,0.071,0.064,0.149,0.098,0.237
		c0.717-0.692,1.449-1.313,2.223-1.873c0.581-0.422,1.071-0.774,1.555-1.082c-0.75-1.008-1.842-1.745-3.107-2.032
		c-1.956-0.49-4.039,0.178-5.5,1.95c-0.416,0.502-0.897,0.882-1.548,1.015c-0.65,0.133-1.24,0.016-1.684-0.5
		c-0.46-0.531-0.464-1.158-0.22-1.781c0.39-0.998,1.118-1.74,1.925-2.402c1.674-1.373,3.581-2.115,5.769-2.061
		c0.042,0.002,0.083,0.004,0.125-0.002c0.12-0.012,0.279,0.047,0.344-0.09c0.068-0.144-0.08-0.226-0.161-0.312
		c-0.513-0.537-1.046-1.053-1.64-1.508c-0.277-0.211-0.562-0.416-0.792-0.685c-0.643-0.752-0.64-1.764,0.009-2.492
		c0.642-0.727,1.529-0.823,2.379-0.243c1.84,1.256,3.34,2.854,4.626,4.659c0.094,0.131,0.15,0.304,0.354,0.388
		c0.018-0.234-0.07-0.425-0.133-0.615c-0.39-1.188-0.923-2.313-1.558-3.394c-0.2-0.342-0.359-0.694-0.374-1.104
		c-0.032-0.863,0.394-1.559,1.136-1.824c0.759-0.274,1.634,0.002,2.128,0.685c0.604,0.83,1.078,1.733,1.494,2.674
		c0.05,0.119,0.06,0.272,0.208,0.34c0.092-0.088,0.039-0.188,0.035-0.28c-0.093-2.365-0.184-4.729-0.281-7.096
		c-0.115-2.827-0.23-5.655-0.353-8.482c-0.029-0.704-0.059-0.718-0.768-0.72c-1.205,0-2.412,0.003-3.615-0.001h-0.655v2.358l0,0
		c0.476,0.284,0.797,0.803,0.797,1.397c0,0.899-0.729,1.627-1.628,1.627s-1.628-0.729-1.628-1.627c0-0.626,0.356-1.17,0.875-1.442
		v-2.313H9.861v2.332l0,0c0.5,0.278,0.839,0.811,0.839,1.423c0,0.899-0.729,1.627-1.628,1.627c-0.899,0-1.632-0.726-1.632-1.624
		c0-0.61,0.337-1.141,0.833-1.419v-2.335H7.391c-1.177,0-2.354-0.002-3.531,0.003c-0.544,0.001-0.586,0.053-0.608,0.604
		c-0.144,3.568-0.287,7.135-0.435,10.704c-0.108,2.63-0.221,5.261-0.332,7.892c-0.14,3.33-0.28,6.658-0.423,9.988
		C2.057,43.635,2.021,43.773,2,43.908c0,0.76,0,1.516,0,2.271c0.587,1.938,2.296,2.639,3.906,2.625
		c4.135-0.031,8.269-0.011,12.405-0.011c0.111,0,0.225-0.006,0.336-0.002c0.329,0.01,0.41-0.099,0.209-0.392
		C18.363,47.684,17.99,46.902,17.704,46.074z M12.512,24.088c0,0.002,0,0.004,0,0.007c-0.052,0.736-0.36,1.29-0.935,1.659
		c-0.63,0.404-1.403,0.607-2.319,0.607c-0.167,0-0.285-0.004-0.355-0.012c0,0.667,0.019,1.547,0.058,2.642H7.463
		c0.001-0.027,0.002-0.056,0.003-0.082H7.392c0.047-1.043,0.07-2.273,0.07-3.688c0-1.299-0.023-2.42-0.07-3.363h0.943
		c0.133,0,0.39-0.005,0.769-0.016c0.379-0.011,0.707-0.017,0.985-0.017l0,0l0,0c0.687,0,1.266,0.156,1.739,0.466
		c0.472,0.311,0.71,0.783,0.71,1.414C12.538,23.839,12.527,23.965,12.512,24.088z M13.165,28.938l0.262-1.188
		c0.002,0,0.005,0.002,0.008,0.002l0.022-0.104c0.586,0.203,1.138,0.303,1.658,0.303c0.072,0,0.142,0,0.209-0.002
		c0.469-0.012,0.815-0.066,1.036-0.164c0.087-0.039,0.153-0.09,0.21-0.146c0.052-0.088,0.082-0.188,0.082-0.309
		c0-0.27-0.118-0.498-0.352-0.682c-0.202-0.164-0.612-0.375-1.229-0.639c-0.561-0.242-0.978-0.505-1.251-0.788
		c-0.344-0.358-0.516-0.801-0.516-1.325c0-0.162,0.017-0.313,0.049-0.456l0,0c0.061-0.484,0.283-0.876,0.67-1.171
		c0.461-0.35,1.122-0.525,1.985-0.525c0.708,0,1.301,0.06,1.781,0.179l0,0l0,0l-0.199,1.202c-0.022-0.008-0.046-0.014-0.068-0.022
		l-0.034,0.201c-0.479-0.174-0.997-0.26-1.555-0.26c-0.655,0-1.049,0.138-1.192,0.411c-0.004,0.029-0.012,0.056-0.012,0.086
		c0,0.242,0.1,0.438,0.298,0.59c0.174,0.13,0.551,0.313,1.131,0.547c0.618,0.249,1.08,0.524,1.387,0.823
		c0.408,0.401,0.612,0.896,0.612,1.482l0,0l0,0c0,0.65-0.216,1.146-0.645,1.498c-0.486,0.466-1.304,0.697-2.457,0.697
		C14.377,29.182,13.747,29.102,13.165,28.938z"/>
	<path fill="#E82630" d="M26.766,42.83c-0.001-0.004-0.002-0.008-0.003-0.012c-0.011-0.031-0.021-0.062-0.028-0.094
		c-0.166-0.736-0.155-1.103-0.499-1.759c-0.473-0.903-1.183-1.229-2.111-0.946c-0.526,0.16-0.997,0.432-1.425,0.799
		c-0.077,0.065-0.128,0.121-0.151,0.176c-0.039,0.09,0,0.178,0.128,0.309c0.463,0.484,0.598,0.676,0.969,1.25
		c1.032,1.59,1.833,3.309,2.604,5.045c0.131,0.297,0.241,0.334,0.441,0.057c1.192-1.655,2.478-3.223,3.863-4.7
		c0.32-0.345,0.648-0.677,0.981-1l0,0c0.722-0.707,1.473-1.379,2.269-1.998c0.458-0.354,0.922-0.705,1.417-1.006
		c0.098-0.06,0.24-0.123,0.178-0.261c-0.062-0.135-0.196-0.045-0.306-0.022c-0.236,0.049-0.479,0.063-0.714,0.115
		c-1.713,0.375-2.691,0.801-3.699,1.438c-0.483,0.305-0.974,0.658-1.555,1.082c-0.774,0.557-1.506,1.178-2.223,1.871
		c-0.034-0.088-0.068-0.166-0.098-0.238c-0.004-0.01-0.009-0.021-0.013-0.033C26.784,42.879,26.774,42.854,26.766,42.83z"/>
	<path fill="#04394C" d="M9.858,14.306L9.858,14.306V9.609c0-3.64,3.728-7.637,8.691-7.637c4.965,0,8.692,3.997,8.692,7.637v4.696
		v2.313v1.036h1.584v-0.991l0,0v-2.358l0,0V9.609c0-5.1-4.608-9.249-10.276-9.249c-5.666,0-10.275,4.149-10.275,9.249v4.697v2.335
		v1.013h1.584v-1.017l0,0V14.306z"/>
	<path fill="#E72730" d="M11.827,22.292c-0.473-0.31-1.052-0.466-1.739-0.466l0,0c-0.278,0-0.605,0.006-0.985,0.017
		c-0.379,0.01-0.636,0.016-0.769,0.016l0,0H7.392c0.047,0.943,0.07,2.063,0.07,3.363c0,1.417-0.023,2.646-0.07,3.688h0.075l0,0
		h1.447c-0.04-1.113-0.06-2.008-0.06-2.687c0.072,0.007,0.193,0.011,0.363,0.011c0.931,0,1.717-0.206,2.359-0.618
		c0.54-0.346,0.85-0.855,0.935-1.522c0-0.003,0-0.005,0-0.007c0.015-0.123,0.026-0.249,0.026-0.382
		C12.537,23.075,12.299,22.603,11.827,22.292z M10.758,24.861c-0.325,0.262-0.856,0.393-1.595,0.393
		c-0.119,0-0.224-0.003-0.314-0.01c0-0.798-0.018-1.517-0.052-2.161c-0.002-0.052-0.005-0.107-0.008-0.157
		c0.285-0.055,0.556-0.082,0.812-0.082c1.025,0,1.538,0.386,1.538,1.159C11.14,24.37,11.012,24.656,10.758,24.861z"/>
	<path fill="#04394C" d="M15.114,29.105c1.097,0,1.895-0.209,2.398-0.621c0.429-0.353,0.645-0.849,0.645-1.498l0,0
		c0-0.587-0.204-1.083-0.612-1.483c-0.307-0.299-0.769-0.574-1.387-0.823c-0.581-0.234-0.958-0.417-1.131-0.547
		c-0.199-0.152-0.298-0.348-0.298-0.59l0,0c0-0.03,0.007-0.058,0.012-0.086c0.053-0.396,0.472-0.596,1.267-0.596
		c0.541,0,1.044,0.083,1.514,0.244c0.022,0.008,0.046,0.014,0.068,0.021l0.199-1.202l0,0c-0.479-0.119-1.073-0.179-1.781-0.179
		c-0.863,0-1.524,0.175-1.985,0.525c-0.387,0.294-0.609,0.687-0.67,1.171l0,0c-0.013,0.092-0.021,0.187-0.021,0.286
		c0,0.535,0.175,0.983,0.525,1.349c0.278,0.288,0.702,0.556,1.272,0.802c0.628,0.267,1.046,0.484,1.251,0.649
		c0.238,0.188,0.357,0.418,0.357,0.693c0,0.174-0.06,0.309-0.168,0.418c-0.057,0.057-0.124,0.107-0.21,0.146
		c-0.221,0.098-0.567,0.152-1.036,0.164c-0.068,0.002-0.137,0.002-0.209,0.002c-0.521,0-1.072-0.1-1.658-0.303l-0.022,0.104
		l-0.243,1.104C13.784,29.023,14.425,29.105,15.114,29.105z"/>
</g>
</svg>
